<svg width="40" height="40" viewBox="0 0 40 40" fill="none" xmlns="http://www.w3.org/2000/svg">
<path fill-rule="evenodd" clip-rule="evenodd" d="M20 0C8.9543 0 0 8.9543 0 20C0 31.0457 8.9543 40 20 40C31.0457 40 40 31.0457 40 20C40 8.9543 31.0457 0 20 0ZM15.6027 9.3977C16.7405 9.34592 17.1041 9.33325 20.001 9.33325H19.9976C22.8955 9.33325 23.2577 9.34592 24.3955 9.3977C25.531 9.4497 26.3066 9.62948 26.9866 9.89326C27.6888 10.1655 28.2822 10.5299 28.8755 11.1233C29.4689 11.7162 29.8333 12.3113 30.1066 13.0128C30.3689 13.6911 30.5489 14.4662 30.6022 15.6018C30.6533 16.7396 30.6666 17.1031 30.6666 20C30.6666 22.8969 30.6533 23.2596 30.6022 24.3974C30.5489 25.5325 30.3689 26.3079 30.1066 26.9863C29.8333 27.6877 29.4689 28.2828 28.8755 28.8757C28.2828 29.469 27.6886 29.8344 26.9873 30.1068C26.3086 30.3706 25.5326 30.5504 24.397 30.6024C23.2592 30.6541 22.8968 30.6668 19.9996 30.6668C17.1029 30.6668 16.7396 30.6541 15.6018 30.6024C14.4665 30.5504 13.6911 30.3706 13.0125 30.1068C12.3113 29.8344 11.7162 29.469 11.1236 28.8757C10.5304 28.2828 10.166 27.6877 9.89332 26.9861C9.62976 26.3079 9.44998 25.5328 9.39776 24.3972C9.3462 23.2594 9.33331 22.8969 9.33331 20C9.33331 17.1031 9.34665 16.7393 9.39754 15.6015C9.44865 14.4664 9.62865 13.6911 9.8931 13.0126C10.1664 12.3113 10.5309 11.7162 11.1242 11.1233C11.7171 10.5302 12.3122 10.1657 13.0138 9.89326C13.692 9.62948 14.4671 9.4497 15.6027 9.3977Z" fill="#075E00"/>
<path fill-rule="evenodd" clip-rule="evenodd" d="M19.0441 11.2556C19.2299 11.2553 19.4298 11.2554 19.6455 11.2555L20.001 11.2556C22.849 11.2556 23.1866 11.2658 24.3113 11.3169C25.3513 11.3645 25.9157 11.5383 26.2917 11.6843C26.7895 11.8776 27.1444 12.1087 27.5175 12.4821C27.8909 12.8554 28.122 13.211 28.3158 13.7087C28.4618 14.0843 28.6358 14.6487 28.6831 15.6888C28.7342 16.8132 28.7453 17.151 28.7453 19.9977C28.7453 22.8444 28.7342 23.1822 28.6831 24.3066C28.6355 25.3466 28.4618 25.9111 28.3158 26.2866C28.1224 26.7844 27.8909 27.1389 27.5175 27.512C27.1442 27.8853 26.7897 28.1164 26.2917 28.3098C25.9162 28.4564 25.3513 28.6298 24.3113 28.6773C23.1868 28.7284 22.849 28.7396 20.001 28.7396C17.1528 28.7396 16.8152 28.7284 15.6907 28.6773C14.6507 28.6293 14.0863 28.4556 13.7101 28.3096C13.2123 28.1162 12.8567 27.8851 12.4834 27.5118C12.11 27.1384 11.8789 26.7838 11.6851 26.2858C11.5391 25.9102 11.3651 25.3457 11.3178 24.3057C11.2667 23.1813 11.2565 22.8435 11.2565 19.995C11.2565 17.1465 11.2667 16.8105 11.3178 15.6861C11.3654 14.6461 11.5391 14.0816 11.6851 13.7056C11.8785 13.2078 12.11 12.8523 12.4834 12.4789C12.8567 12.1056 13.2123 11.8745 13.7101 11.6807C14.0861 11.534 14.6507 11.3607 15.6907 11.3129C16.6747 11.2685 17.0561 11.2552 19.0441 11.2529V11.2556ZM25.6948 13.0268C24.9881 13.0268 24.4148 13.5995 24.4148 14.3064C24.4148 15.0131 24.9881 15.5864 25.6948 15.5864C26.4015 15.5864 26.9748 15.0131 26.9748 14.3064C26.9748 13.5997 26.4015 13.0264 25.6948 13.0264V13.0268ZM14.5232 20.0001C14.5232 16.975 16.9758 14.5223 20.0008 14.5222C23.0259 14.5222 25.478 16.9749 25.478 20.0001C25.478 23.0252 23.0262 25.4768 20.001 25.4768C16.9759 25.4768 14.5232 23.0252 14.5232 20.0001Z" fill="#075E00"/>
<path d="M20.001 16.4446C21.9646 16.4446 23.5566 18.0364 23.5566 20.0002C23.5566 21.9637 21.9646 23.5558 20.001 23.5558C18.0372 23.5558 16.4454 21.9637 16.4454 20.0002C16.4454 18.0364 18.0372 16.4446 20.001 16.4446Z" fill="#075E00"/>
</svg>
