<svg width="49" height="52" viewBox="0 0 49 52" fill="none" xmlns="http://www.w3.org/2000/svg">
<path d="M35.75 14.5227L47 20.0546V48.8206L32.6818 42.1823L16.3182 48.8206L2 42.1823V13.4164L12.2273 17.8419L35.75 14.5227ZM32.6818 42.1823V26.6929V42.1823ZM16.3182 48.8206V26.6929V48.8206ZM24.5 36.1481C24.5 36.1481 12.2273 25.5865 12.2273 15.6291C12.2273 7.33126 18.3636 2.35254 24.5 2.35254C30.6364 2.35254 36.7727 7.33126 36.7727 15.6291C36.7727 25.5865 24.5 36.1481 24.5 36.1481ZM26.5455 15.6291C26.5455 15.0423 26.33 14.4794 25.9464 14.0645C25.5628 13.6495 25.0425 13.4164 24.5 13.4164C23.9575 13.4164 23.4372 13.6495 23.0536 14.0645C22.67 14.4794 22.4545 15.0423 22.4545 15.6291C22.4545 16.216 22.67 16.7788 23.0536 17.1938C23.4372 17.6087 23.9575 17.8419 24.5 17.8419C25.0425 17.8419 25.5628 17.6087 25.9464 17.1938C26.33 16.7788 26.5455 16.216 26.5455 15.6291Z" stroke="#075E00" stroke-width="3.75"/>
</svg>
