<svg width="40" height="40" viewBox="0 0 40 40" fill="none" xmlns="http://www.w3.org/2000/svg">
<path fill-rule="evenodd" clip-rule="evenodd" d="M20 0C8.9543 0 0 8.9543 0 20C0 31.0457 8.9543 40 20 40C31.0457 40 40 31.0457 40 20C40 8.9543 31.0457 0 20 0ZM23.3333 19.5951H23.3342L24.7949 20.6276C24.9817 20.7689 25.2033 20.6537 25.2426 20.6313C25.1893 20.6549 32 16 32 16V24.6617C32 25.6046 31.4134 26 30.7538 26H23.3333V19.5951ZM23.3333 13.3333V18.2427L24.9342 19.323C24.9764 19.3362 25.0679 19.3371 25.1101 19.323L32 14.3447C32 13.7556 31.4872 13.3333 31.1978 13.3333H23.3333ZM8.66669 29.0704V10.7042L22.6667 8V32L8.66669 29.0704Z" fill="#075E00"/>
<path fill-rule="evenodd" clip-rule="evenodd" d="M15.7199 24.1588C16.6719 24.1588 17.4433 23.7694 18.0349 22.9924C18.6265 22.2154 18.9228 21.1914 18.9219 19.9213C18.9219 18.6854 18.6365 17.6903 18.0656 16.9349C17.4957 16.1795 16.7478 15.8027 15.8238 15.8027C14.8456 15.8027 14.0598 16.1976 13.4664 16.9863C12.873 17.775 12.5767 18.808 12.5767 20.0853C12.5767 21.295 12.8694 22.2757 13.4529 23.0293C14.0372 23.782 14.7923 24.1588 15.7199 24.1588ZM14.4597 18.0679C14.7659 17.5784 15.1806 17.3333 15.7011 17.3333C16.2068 17.3333 16.605 17.5711 16.8965 18.0467C17.188 18.5233 17.3333 19.1897 17.3333 20.046C17.3333 20.8673 17.1825 21.5098 16.8827 21.9725C16.5829 22.4352 16.1765 22.6666 15.6643 22.6666C15.1678 22.6666 14.7659 22.4297 14.4597 21.9531C14.1535 21.4775 13.9999 20.8304 13.9999 20.0119C13.9999 19.2054 14.1535 18.5574 14.4597 18.0679Z" fill="#075E00"/>
</svg>
