<svg width="58" height="45" viewBox="0 0 58 45" fill="none" xmlns="http://www.w3.org/2000/svg">
<path d="M50.75 12.5V7.5C50.75 3.375 47.4875 0 43.5 0H33.8333C31.9725 0 30.2808 0.750001 29 1.95C27.7192 0.750001 26.0275 0 24.1667 0H14.5C10.5125 0 7.25 3.375 7.25 7.5V12.5C3.2625 12.5 0 15.875 0 20V32.5C0 36.625 3.2625 40 7.25 40V45H12.0833V40H45.9167V45H50.75V40C54.7375 40 58 36.625 58 32.5V20C58 15.875 54.7375 12.5 50.75 12.5ZM33.8333 5H43.5C44.8292 5 45.9167 6.125 45.9167 7.5V14.45C44.4425 15.825 43.5 17.8 43.5 20V25H31.4167V7.5C31.4167 6.125 32.5042 5 33.8333 5ZM12.0833 7.5C12.0833 6.125 13.1708 5 14.5 5H24.1667C25.4958 5 26.5833 6.125 26.5833 7.5V25H14.5V20C14.5 17.8 13.5575 15.825 12.0833 14.45V7.5ZM53.1667 32.5C53.1667 33.875 52.0792 35 50.75 35H7.25C5.92083 35 4.83333 33.875 4.83333 32.5V20C4.83333 18.625 5.92083 17.5 7.25 17.5C8.57917 17.5 9.66667 18.625 9.66667 20V30H48.3333V20C48.3333 18.625 49.4208 17.5 50.75 17.5C52.0792 17.5 53.1667 18.625 53.1667 20V32.5Z" fill="#075E00"/>
</svg>
