<svg width="40" height="40" viewBox="0 0 40 40" fill="none" xmlns="http://www.w3.org/2000/svg">
<path fill-rule="evenodd" clip-rule="evenodd" d="M0 20C0 31.0457 8.9543 40 20 40C31.0457 40 40 31.0457 40 20C40 8.9543 31.0457 0 20 0C8.9543 0 0 8.9543 0 20ZM32.5517 19.2345C32.5491 25.7901 27.2162 31.1243 20.6592 31.127H20.6543C18.6639 31.1263 16.7081 30.6269 14.9711 29.6795L8.66663 31.3333L10.3538 25.1706C9.31307 23.367 8.76544 21.3212 8.76633 19.2251C8.76894 12.668 14.104 7.33325 20.6591 7.33325C23.8405 7.33463 26.8265 8.57314 29.0718 10.8211C31.3171 13.0689 32.553 16.0569 32.5517 19.2345Z" fill="#075E00"/>
<path fill-rule="evenodd" clip-rule="evenodd" d="M11.522 28.508L15.2632 27.5266L15.6241 27.7408C17.1418 28.6414 18.8815 29.1179 20.6552 29.1186H20.6592C26.1073 29.1186 30.5416 24.6843 30.5438 19.2339C30.5448 16.5927 29.5176 14.1092 27.6514 12.2408C25.7851 10.3724 23.3033 9.34296 20.6631 9.34204C15.2107 9.34204 10.7765 13.7759 10.7743 19.2259C10.7735 21.0937 11.2961 22.9126 12.2856 24.4864L12.5206 24.8604L11.522 28.508ZM26.2436 21.7951C26.4509 21.8952 26.5908 21.9629 26.6506 22.0626C26.7249 22.1865 26.7249 22.7815 26.4774 23.4757C26.2296 24.1698 25.0425 24.8034 24.4715 24.8886C23.9596 24.9652 23.3117 24.9971 22.5999 24.7709C22.1683 24.634 21.6148 24.4511 20.9059 24.1449C18.1201 22.942 16.2375 20.242 15.8817 19.7317C15.8567 19.696 15.8393 19.671 15.8296 19.658L15.8272 19.6548C15.6699 19.445 14.6162 18.0391 14.6162 16.584C14.6162 15.2152 15.2886 14.4978 15.5981 14.1675C15.6193 14.1449 15.6388 14.1241 15.6562 14.105C15.9286 13.8075 16.2506 13.7332 16.4487 13.7332C16.6467 13.7332 16.845 13.735 17.0182 13.7437C17.0395 13.7448 17.0618 13.7446 17.0847 13.7445C17.2579 13.7435 17.4738 13.7422 17.6868 14.2538C17.7687 14.4506 17.8886 14.7425 18.015 15.0503C18.2707 15.6728 18.5532 16.3607 18.6029 16.4602C18.6773 16.6089 18.7268 16.7824 18.6277 16.9808C18.6129 17.0106 18.5991 17.0386 18.586 17.0655C18.5116 17.2174 18.4568 17.3291 18.3306 17.4765C18.2809 17.5345 18.2296 17.597 18.1783 17.6595C18.0761 17.784 17.9738 17.9085 17.8848 17.9971C17.7361 18.1453 17.5812 18.3061 17.7545 18.6036C17.9279 18.9011 18.5243 19.8741 19.4077 20.6621C20.3573 21.5091 21.1826 21.8671 21.6009 22.0486C21.6826 22.084 21.7488 22.1127 21.7973 22.137C22.0944 22.2858 22.2677 22.2609 22.4411 22.0626C22.6144 21.8643 23.1839 21.1949 23.382 20.8975C23.5801 20.6001 23.7782 20.6496 24.0506 20.7487C24.323 20.848 25.784 21.5668 26.0811 21.7155C26.1391 21.7446 26.1934 21.7708 26.2436 21.7951Z" fill="#075E00"/>
</svg>
